<?xml version="1.0" encoding="UTF-8" standalone="no"?>
<!-- Created with Inkscape (http://www.inkscape.org/) -->

<svg
   width="210mm"
   height="297mm"
   viewBox="0 0 210 297"
   version="1.1"
   id="svg5"
   inkscape:version="1.2.2 (732a01da63, 2022-12-09)"
   sodipodi:docname="AutoSkippyIcon.svg"
   xmlns:inkscape="http://www.inkscape.org/namespaces/inkscape"
   xmlns:sodipodi="http://sodipodi.sourceforge.net/DTD/sodipodi-0.dtd"
   xmlns:xlink="http://www.w3.org/1999/xlink"
   xmlns="http://www.w3.org/2000/svg"
   xmlns:svg="http://www.w3.org/2000/svg">
  <sodipodi:namedview
     id="namedview7"
     pagecolor="#ffffff"
     bordercolor="#666666"
     borderopacity="1.0"
     inkscape:showpageshadow="2"
     inkscape:pageopacity="0.0"
     inkscape:pagecheckerboard="0"
     inkscape:deskcolor="#d1d1d1"
     inkscape:document-units="mm"
     showgrid="false"
     inkscape:zoom="2.3786088"
     inkscape:cx="169.00635"
     inkscape:cy="862.47895"
     inkscape:window-width="1600"
     inkscape:window-height="1137"
     inkscape:window-x="1912"
     inkscape:window-y="-8"
     inkscape:window-maximized="1"
     inkscape:current-layer="layer1" />
  <defs
     id="defs2">
    <linearGradient
       inkscape:collect="always"
       id="linearGradient6009">
      <stop
         style="stop-color:#282828;stop-opacity:1;"
         offset="0"
         id="stop6005" />
      <stop
         style="stop-color:#282828;stop-opacity:0.60000002;"
         offset="1"
         id="stop6007" />
    </linearGradient>
    <linearGradient
       inkscape:collect="always"
       xlink:href="#linearGradient6009"
       id="linearGradient6011"
       x1="62.161201"
       y1="207.65591"
       x2="45.161201"
       y2="190.65591"
       gradientUnits="userSpaceOnUse" />
  </defs>
  <g
     inkscape:label="Layer 1"
     inkscape:groupmode="layer"
     id="layer1">
    <rect
       style="fill:#ffffff;fill-opacity:1;stroke:none;stroke-width:2;stroke-linecap:round;stroke-linejoin:round;stroke-miterlimit:1;stroke-dasharray:none;stroke-opacity:1"
       id="rect6739"
       width="17"
       height="17"
       x="45.161201"
       y="190.65591"
       ry="3.499995"
       inkscape:export-filename="AutoSkippyIcon.png"
       inkscape:export-xdpi="684.4632"
       inkscape:export-ydpi="684.4632" />
    <rect
       style="fill:url(#linearGradient6011);fill-opacity:1;stroke:none;stroke-width:2;stroke-linecap:round;stroke-linejoin:round;stroke-miterlimit:1;stroke-dasharray:none;stroke-opacity:1"
       id="rect5980"
       width="17"
       height="17"
       x="45.161201"
       y="190.65591"
       ry="3.499995"
       inkscape:export-filename="TimeLapserdakIcon.png"
       inkscape:export-xdpi="684.4632"
       inkscape:export-ydpi="684.4632" />
    <circle
       style="fill:none;fill-opacity:1;stroke:#000000;stroke-width:3;stroke-linecap:round;stroke-linejoin:round;stroke-miterlimit:1;stroke-dasharray:none;stroke-opacity:1"
       id="path234"
       cx="89.768242"
       cy="127.73114"
       r="11" />
    <rect
       style="fill:none;fill-opacity:1;stroke:#000000;stroke-width:3.00001;stroke-linecap:round;stroke-linejoin:round;stroke-miterlimit:1;stroke-dasharray:none;stroke-opacity:1"
       id="rect1986"
       width="52"
       height="36.999989"
       x="55.43137"
       y="109.23114" />
    <rect
       style="fill:none;fill-opacity:1;stroke:#000000;stroke-width:3;stroke-linecap:round;stroke-linejoin:round;stroke-miterlimit:1;stroke-dasharray:none;stroke-opacity:1"
       id="rect3554"
       width="2.3150346"
       height="22"
       x="63.407009"
       y="116.73114" />
    <path
       id="rect3556"
       style="fill:none;stroke:#000000;stroke-width:3;stroke-linecap:round;stroke-linejoin:round;stroke-miterlimit:1"
       d="m 75.431368,102.23114 h 12 l 4.999632,7 h -22 z"
       sodipodi:nodetypes="ccccc" />
    <rect
       style="fill:none;fill-opacity:1;stroke:#5f8dd3;stroke-width:2;stroke-linecap:round;stroke-linejoin:round;stroke-miterlimit:1;stroke-dasharray:none;stroke-opacity:1"
       id="rect4520"
       width="17"
       height="17"
       x="45.161201"
       y="190.65591"
       ry="3.499995" />
    <text
       xml:space="preserve"
       style="font-style:normal;font-weight:normal;font-size:10.5833px;line-height:1.25;font-family:'Eurostile Bold';letter-spacing:0px;word-spacing:0px;fill:#000000;fill-opacity:1;stroke:none;stroke-width:0.264583;-inkscape-font-specification:'Eurostile Bold, Normal';font-stretch:normal;font-variant:normal;font-variant-ligatures:normal;font-variant-caps:normal;font-variant-numeric:normal;font-variant-east-asian:normal"
       x="36.810383"
       y="235.33475"
       id="text955"><tspan
         sodipodi:role="line"
         id="tspan953"
         style="stroke-width:0.264583;-inkscape-font-specification:'Eurostile Bold, Normal';font-family:'Eurostile Bold';font-weight:normal;font-style:normal;font-stretch:normal;font-variant:normal;font-size:10.58330002px;font-variant-ligatures:normal;font-variant-caps:normal;font-variant-numeric:normal;font-variant-east-asian:normal"
         x="36.810383"
         y="235.33475">AS</tspan></text>
    <g
       aria-label="AS"
       id="text959"
       style="font-size:10.5833px;line-height:1.25;font-family:'Eurostile Bold';-inkscape-font-specification:'Eurostile Bold, Normal';letter-spacing:0px;word-spacing:0px;stroke-width:0.264583">
      <path
         id="path963"
         d="m 63.644536,232.753 h -2.736077 v -1.78608 h -1.747657 l -0.478723,1.78608 h -2.736078 l 2.959699,-10 h 4.738836 l 4.64e-4,7.87 h 3.855585 c 0.70153,0 0.761803,-0.0643 0.940374,-0.1918 0.182824,-0.12755 0.274235,-0.38478 0.274235,-0.77169 0,-0.39116 -0.07865,-0.63351 -0.235969,-0.72704 -0.157314,-0.0935 -0.170817,-0.14668 -0.800068,-0.15944 -1.751701,-0.0383 -2.470273,-0.25084 -3.040001,-0.63775 -0.569727,-0.39116 -0.854591,-1.16709 -0.854591,-2.3278 0,-1.27126 0.306122,-2.09822 0.918368,-2.48087 0.612244,-0.38266 1.239404,-0.57361 2.765764,-0.57361 1.59864,0 2.269031,0.19733 2.770731,0.59274 0.501701,0.3954 0.763181,1.1182 0.784439,2.16837 v 0.40179 h -2.487245 c -0.02126,-0.42942 -0.112677,-0.70792 -0.274235,-0.83546 -0.157313,-0.13181 -0.149558,-0.19771 -0.736291,-0.19771 -0.663265,0 -0.727073,0.0595 -0.9184,0.17858 -0.191327,0.11477 -0.208336,0.35501 -0.208336,0.72066 0,0.28912 -0.01063,0.49958 0.125428,0.63137 0.140305,0.12755 0.09782,0.20409 0.599521,0.2296 1.037416,0.051 1.563249,0.12753 2.337058,0.22958 0.778061,0.10207 1.305272,0.44855 1.581633,1.03954 0.191327,0.41241 0.286989,1.03954 0.286989,1.88138 0,1.05017 -0.276361,1.80698 -0.829082,2.27041 -0.548469,0.45919 -1.297517,0.68915 -3.006699,0.68915 z m -3.916132,-3.70573 h 1.180055 l -1.04e-4,-4.24107 z"
         sodipodi:nodetypes="cccccccccscssccssssccccscsccccsccccccc"
         style="stroke-width:0.264583" />
    </g>
    <g
       aria-label="AS"
       id="g1093"
       style="font-size:10.5833px;line-height:1.25;font-family:'Eurostile Bold';-inkscape-font-specification:'Eurostile Bold, Normal';letter-spacing:0px;word-spacing:0px;stroke-width:0.264583"
       transform="translate(-8.7319074,24.777482)">
      <path
         id="path1091"
         d="m 63.644536,232.753 h -2.736077 v -1.78608 h -1.747657 l -0.478723,1.78608 h -2.736078 l 2.959699,-10 h 4.738836 l 4.64e-4,7.87 z m -3.916132,-3.70573 h 1.180055 l -1.04e-4,-4.24107 z"
         sodipodi:nodetypes="cccccccccccccc"
         style="stroke-width:0.264583" />
    </g>
    <g
       aria-label="S"
       id="text1097"
       style="font-size:10.5833px;line-height:1.25;font-family:'Eurostile Bold';-inkscape-font-specification:'Eurostile Bold, Normal';letter-spacing:0px;word-spacing:0px;stroke-width:0.245111"
       transform="matrix(0.9441398,0,0,1.2341352,-15.941574,-62.689746)">
      <path
         d="m 76.721128,256.84786 c 0,0.37207 0.06145,0.61839 0.184372,0.73897 0.122914,0.12057 0.396911,0.18086 0.821989,0.18086 0.422519,0 0.687553,-0.0517 0.795103,-0.15503 0.110111,-0.10335 0.165166,-0.31177 0.165166,-0.62528 0,-0.31695 -0.04737,-0.51332 -0.14212,-0.58911 -0.09475,-0.0758 -0.331612,-0.11886 -0.710598,-0.12919 -1.055015,-0.031 -1.754091,-0.20325 -2.097227,-0.51676 -0.343135,-0.31695 -0.514703,-0.94567 -0.514703,-1.88618 0,-1.03008 0.184371,-1.70015 0.553114,-2.01021 0.368743,-0.31006 1.012764,-0.46509 1.93206,-0.46509 0.962829,0 1.595326,0.1602 1.897491,0.48059 0.302164,0.32039 0.459649,0.90606 0.472452,1.75699 v 0.32557 h -1.498018 c -0.01281,-0.34796 -0.06786,-0.57361 -0.165167,-0.67696 -0.09475,-0.1068 -0.31881,-0.1602 -0.672188,-0.1602 -0.399472,0 -0.656824,0.0482 -0.772056,0.14469 -0.115232,0.093 -0.172848,0.28767 -0.172848,0.58394 0,0.23427 0.04097,0.4048 0.122914,0.5116 0.0845,0.10335 0.277838,0.16536 0.580002,0.18603 0.624815,0.0413 1.170247,0.10335 1.636297,0.18604 0.468612,0.0827 0.78614,0.36345 0.952587,0.84232 0.115232,0.33417 0.172849,0.84232 0.172849,1.52445 0,0.85094 -0.166447,1.46417 -0.49934,1.83968 -0.330332,0.37207 -1.010203,0.5581 -2.03961,0.5581 -1.147201,0 -1.851398,-0.23082 -2.112591,-0.69246 -0.258632,-0.46164 -0.387948,-1.11276 -0.387948,-1.95336 z"
         id="path1099"
         style="stroke-width:0.245111"
         sodipodi:nodetypes="csscssccssssccccscsccccscsccc" />
    </g>
    <g
       aria-label="AS"
       id="g1104"
       style="font-size:10.5833px;line-height:1.25;font-family:'Eurostile Bold';-inkscape-font-specification:'Eurostile Bold, Normal';letter-spacing:0px;word-spacing:0px;fill:#5f8dd3;fill-opacity:1;stroke:#5f8dd3;stroke-width:0.264583;stroke-opacity:1"
       transform="translate(-39.197488,-25.148817)">
      <path
         id="path1102"
         d="m 63.644536,232.753 h -2.736077 v -1.78608 h -1.747657 l -0.478723,1.78608 h -2.736078 l 2.959699,-10 h 4.738836 l 4.64e-4,7.87 h 4.297728 c 0.70153,0 1.141582,-0.0643 1.320153,-0.1918 0.182824,-0.12755 0.274235,-0.38478 0.274235,-0.77169 0,-0.39116 -0.07865,-0.63351 -0.235969,-0.72704 -0.157314,-0.0935 -0.550596,-0.14668 -1.179847,-0.15944 -1.751701,-0.0383 -2.912416,-0.25084 -3.482144,-0.63775 -0.569727,-0.39116 -0.854591,-1.16709 -0.854591,-2.3278 0,-1.27126 0.306122,-2.09822 0.918368,-2.48087 0.612244,-0.38266 1.681547,-0.57361 3.207907,-0.57361 1.59864,0 2.64881,0.19733 3.15051,0.59274 0.501701,0.3954 0.763181,1.1182 0.784439,2.16837 v 0.40179 h -2.487245 c -0.02126,-0.42942 -0.112677,-0.70792 -0.274235,-0.83546 -0.157313,-0.13181 -0.529337,-0.19771 -1.11607,-0.19771 -0.663265,0 -1.090561,0.0595 -1.281888,0.17858 -0.191327,0.11477 -0.286991,0.35501 -0.286991,0.72066 0,0.28912 0.06803,0.49958 0.204083,0.63137 0.140305,0.12755 0.461309,0.20409 0.963009,0.2296 1.037416,0.051 1.943028,0.12753 2.716837,0.22958 0.778061,0.10207 1.305272,0.44855 1.581633,1.03954 0.191327,0.41241 0.286989,1.03954 0.286989,1.88138 0,1.05017 -0.276361,1.80698 -0.829082,2.27041 -0.548469,0.45919 -1.677296,0.68915 -3.386478,0.68915 z m -3.916132,-3.70573 h 1.180055 l -1.04e-4,-4.24107 z"
         sodipodi:nodetypes="cccccccccscssccssssccccscsccccsccccccc"
         style="fill:#5f8dd3;fill-opacity:1;stroke:#5f8dd3;stroke-width:0.264583;stroke-opacity:1" />
    </g>
    <g
       aria-label="AS"
       id="g1108"
       style="font-size:10.5833px;line-height:1.25;font-family:'Eurostile Bold';-inkscape-font-specification:'Eurostile Bold, Normal';letter-spacing:0px;word-spacing:0px;stroke-width:0.264583;stroke:none;stroke-opacity:1;fill:#5f8dd3;fill-opacity:1"
       transform="translate(-9.9767935,-28.597086)">
      <path
         id="path1106"
         d="m 63.644536,232.753 h -2.736077 v -1.78608 h -1.747657 l -0.478723,1.78608 h -2.736078 l 2.959699,-10 h 4.738836 l 4.64e-4,7.87 h 3.855585 c 0.70153,0 0.761803,-0.0643 0.940374,-0.1918 0.182824,-0.12755 0.274235,-0.38478 0.274235,-0.77169 0,-0.39116 -0.07865,-0.63351 -0.235969,-0.72704 -0.157314,-0.0935 -0.170817,-0.14668 -0.800068,-0.15944 -1.751701,-0.0383 -2.470273,-0.25084 -3.040001,-0.63775 -0.569727,-0.39116 -0.854591,-1.16709 -0.854591,-2.3278 0,-1.27126 0.306122,-2.09822 0.918368,-2.48087 0.612244,-0.38266 1.239404,-0.57361 2.765764,-0.57361 1.59864,0 2.269031,0.19733 2.770731,0.59274 0.501701,0.3954 0.763181,1.1182 0.784439,2.16837 v 0.40179 h -2.487245 c -0.02126,-0.42942 -0.112677,-0.70792 -0.274235,-0.83546 -0.157313,-0.13181 -0.149558,-0.19771 -0.736291,-0.19771 -0.663265,0 -0.727073,0.0595 -0.9184,0.17858 -0.191327,0.11477 -0.208336,0.35501 -0.208336,0.72066 0,0.28912 -0.01063,0.49958 0.125428,0.63137 0.140305,0.12755 0.09782,0.20409 0.599521,0.2296 1.037416,0.051 1.563249,0.12753 2.337058,0.22958 0.778061,0.10207 1.305272,0.44855 1.581633,1.03954 0.191327,0.41241 0.286989,1.03954 0.286989,1.88138 0,1.05017 -0.276361,1.80698 -0.829082,2.27041 -0.548469,0.45919 -1.297517,0.68915 -3.006699,0.68915 z m -3.916132,-3.70573 h 1.180055 l -1.04e-4,-4.24107 z"
         sodipodi:nodetypes="cccccccccscssccssssccccscsccccsccccccc"
         style="stroke-width:0.264583;stroke:none;stroke-opacity:1;fill:#5f8dd3;fill-opacity:1" />
    </g>
  </g>
</svg>
